HIERARCHY
ROOT Hips
{
  OFFSET 0.000000 0.000000 0.000000
  CHANNELS 6 Xposition Yposition Zposition Xrotation Yrotation Zrotation
  JOINT Spine
  {
    OFFSET 1.388230 22.849755 -8.157144
    CHANNELS 3 Xrotation Yrotation Zrotation
    JOINT Chest
    {
      OFFSET 1.388230 22.849755 -8.157144
      CHANNELS 3 Xrotation Yrotation Zrotation
      JOINT Neck
      {
        OFFSET 0.386562 8.498444 -3.690407
        CHANNELS 3 Xrotation Yrotation Zrotation
        JOINT Head
        {
          OFFSET 0.662911 7.396516 -7.447500
          CHANNELS 3 Xrotation Yrotation Zrotation
          End Site
          {
            OFFSET 0.198873 2.218955 -2.234250
          }
        }
      }
      JOINT LeftShoulder
      {
        OFFSET 17.248308 -1.208605 -0.261267
        CHANNELS 3 Xrotation Yrotation Zrotation
        JOINT LeftArm
        {
          OFFSET 7.635523 -21.435821 1.774202
          CHANNELS 3 Xrotation Yrotation Zrotation
          JOINT LeftForeArm
          {
            OFFSET 7.643843 -21.327462 -9.147581
            CHANNELS 3 Xrotation Yrotation Zrotation
            JOINT LeftHand
            {
              OFFSET 0.473402 -5.275506 -2.178749
              CHANNELS 3 Xrotation Yrotation Zrotation
              End Site
              {
                OFFSET 0.142021 -1.582652 -0.653625
              }
            }
          }
        }
      }
      JOINT RightShoulder
      {
        OFFSET -17.248308 1.208605 0.261267
        CHANNELS 3 Xrotation Yrotation Zrotation
        JOINT RightArm
        {
          OFFSET -12.133127 -21.363330 5.693170
          CHANNELS 3 Xrotation Yrotation Zrotation
          JOINT RightForeArm
          {
            OFFSET -7.740244 -22.047532 -5.230031
            CHANNELS 3 Xrotation Yrotation Zrotation
            JOINT RightHand
            {
              OFFSET -0.480044 -5.557554 -1.525311
              CHANNELS 3 Xrotation Yrotation Zrotation
              End Site
              {
                OFFSET -0.144013 -1.667266 -0.457593
              }
            }
          }
        }
      }
    }
  }
  JOINT LeftUpLeg
  {
    OFFSET 11.699587 -0.675443 -0.599665
    CHANNELS 3 Xrotation Yrotation Zrotation
    JOINT LeftLeg
    {
      OFFSET -6.527727 -38.483662 1.737457
      CHANNELS 3 Xrotation Yrotation Zrotation
      JOINT LeftFoot
      {
        OFFSET 3.065902 -35.809878 12.679608
        CHANNELS 3 Xrotation Yrotation Zrotation
        End Site
        {
          OFFSET 0.919771 -10.742963 3.803882
        }
      }
    }
  }
  JOINT RightUpLeg
  {
    OFFSET -11.699587 0.675443 0.599665
    CHANNELS 3 Xrotation Yrotation Zrotation
    JOINT RightLeg
    {
      OFFSET -1.173808 -37.981520 -1.210152
      CHANNELS 3 Xrotation Yrotation Zrotation
      JOINT RightFoot
      {
        OFFSET -7.846448 -39.021816 7.691272
        CHANNELS 3 Xrotation Yrotation Zrotation
        End Site
        {
          OFFSET -2.353934 -11.706545 2.307382
        }
      }
    }
  }
}
MOTION
Frames: 12
Frame Time: 0.083333
0.000000 60.000000 0.000000 -0.754759 0.036580 -0.025527 -0.754759 0.036580 -0.025527 0.000000 0.000000 0.000000 0.496996 -0.067327 -0.023415 5.000000 0.000000 0.000000 -0.027464 0.034519 0.533513 0.681685 -0.102457 0.344506 0.000000 0.000000 0.000000 0.000000 0.000000 0.000000 2.507782 -1.334604 0.356902 3.202876 -0.291517 0.207146 0.000000 0.000000 0.000000 0.000000 0.000000 0.000000 -4.211694 0.994077 2.259371 1.523985 0.172239 0.132492 0.000000 0.000000 0.000000 -7.766452 0.230100 -0.764885 0.487046 0.097104 1.087626 0.000000 0.000000 0.000000
-0.257243 60.000000 -1.638203 -0.761052 0.042716 -0.010551 -0.761052 0.042716 -0.010551 0.000000 0.000000 0.000000 0.330991 -0.041861 -0.012676 5.000000 0.000000 0.000000 -0.138342 -0.008417 0.474633 0.660185 -0.088974 0.308823 0.000000 0.000000 0.000000 0.000000 0.000000 0.000000 2.144296 -1.137399 0.323476 2.762762 -0.250145 0.173815 0.000000 0.000000 0.000000 0.000000 0.000000 0.000000 -3.678783 0.873162 1.976271 1.103227 0.173484 0.235686 0.000000 0.000000 0.000000 -7.778959 0.222937 -0.985764 1.262424 -0.039396 1.215890 0.000000 0.000000 0.000000
-0.710694 60.000000 -4.164375 -2.153119 0.140919 0.022356 -2.153119 0.140919 0.022356 0.000000 0.000000 0.000000 0.511469 -0.046830 -0.001937 5.000000 0.000000 0.000000 -0.664287 -0.125368 1.238925 1.776031 -0.222051 0.787708 0.000000 0.000000 0.000000 0.000000 0.000000 0.000000 5.053109 -2.673488 0.795579 6.485110 -0.577857 0.376815 0.000000 0.000000 0.000000 0.000000 0.000000 0.000000 -8.814112 2.113670 4.841816 2.054006 0.477782 0.883869 0.000000 0.000000 0.000000 -10.843306 0.336444 0.088012 -4.475688 1.134663 0.944708 0.000000 0.000000 0.000000
-1.080862 60.000000 -5.480810 -3.047343 0.251816 0.167268 -3.047343 0.251816 0.167268 0.000000 0.000000 0.000000 -0.033841 0.083497 0.079981 5.000000 0.000000 0.000000 -1.352121 -0.321845 1.687081 2.253127 -0.268097 0.961621 0.000000 0.000000 0.000000 0.000000 0.000000 0.000000 5.143857 -2.734845 0.741796 6.281295 -0.512472 0.209509 0.000000 0.000000 0.000000 0.000000 0.000000 0.000000 -8.944673 2.214576 5.434418 0.995053 0.626901 1.571786 0.000000 0.000000 0.000000 -12.024988 0.344421 -0.395885 -4.661058 1.353195 1.673272 0.000000 0.000000 0.000000
-1.402397 60.000000 -5.917965 -3.256636 0.322216 0.312844 -3.256636 0.322216 0.312844 0.000000 0.000000 0.000000 0.237301 0.121570 0.142449 5.000000 0.000000 0.000000 -0.913195 -0.119048 2.272446 2.068388 -0.320672 1.054762 0.000000 0.000000 0.000000 0.000000 0.000000 0.000000 5.366424 -2.975434 0.164326 5.633533 -0.349858 -0.170476 0.000000 0.000000 0.000000 0.000000 0.000000 0.000000 -7.882560 2.034213 5.886232 1.774758 0.579569 1.275357 0.000000 0.000000 0.000000 -10.522320 0.292721 -0.535198 -5.220393 1.637399 2.332628 0.000000 0.000000 0.000000
-1.822454 60.000000 -6.127072 -3.935158 0.445253 0.508331 -3.935158 0.445253 0.508331 0.000000 0.000000 0.000000 0.193994 0.210253 0.225652 5.000000 0.000000 0.000000 -0.537550 0.025771 2.487549 2.315889 -0.324508 1.094736 0.000000 0.000000 0.000000 0.000000 0.000000 0.000000 5.761070 -3.362716 -0.667989 6.000954 -0.268871 -0.531742 0.000000 0.000000 0.000000 0.000000 0.000000 0.000000 -7.471880 1.975826 6.177484 2.150189 0.647700 1.397953 0.000000 0.000000 0.000000 -10.295483 0.295461 -0.389838 -5.015761 1.673793 2.664968 0.000000 0.000000 0.000000
-2.693350 60.000000 -5.835325 -4.811071 0.648139 0.861561 -4.811071 0.648139 0.861561 0.000000 0.000000 0.000000 -0.521543 0.472269 0.415397 5.000000 0.000000 0.000000 -1.081044 -0.164042 2.395819 3.732596 -0.455011 1.545849 0.000000 0.000000 0.000000 0.000000 0.000000 0.000000 5.687795 -3.483041 -1.495454 6.551958 -0.305984 -0.534023 0.000000 0.000000 0.000000 0.000000 0.000000 0.000000 -7.515474 2.000304 6.305367 2.125223 0.578980 1.198296 0.000000 0.000000 0.000000 -10.721952 0.308054 -0.369654 -5.413478 1.811050 2.845697 0.000000 0.000000 0.000000
-3.798798 60.000000 -6.009728 -5.351215 0.824176 1.200104 -5.351215 0.824176 1.200104 0.000000 0.000000 0.000000 -1.305641 0.872406 0.731390 5.000000 0.000000 0.000000 -2.627009 -0.636445 2.562273 6.962271 -1.013414 3.055374 0.000000 0.000000 0.000000 0.000000 0.000000 0.000000 6.485791 -4.157904 -2.866611 8.082370 -0.469262 -0.349890 0.000000 0.000000 0.000000 0.000000 0.000000 0.000000 -7.721723 2.079061 6.576115 1.917527 0.474781 0.931977 0.000000 0.000000 0.000000 -11.148454 0.310391 -0.521885 -5.832355 1.944484 2.987713 0.000000 0.000000 0.000000
-5.242286 60.000000 -7.419654 -5.112986 0.784519 1.147824 -5.112986 0.784519 1.147824 0.000000 0.000000 0.000000 -1.638144 0.963672 0.785627 5.000000 0.000000 0.000000 -5.237606 -1.043272 6.147242 10.670419 -2.323882 5.957138 0.000000 0.000000 0.000000 0.000000 0.000000 0.000000 9.469929 -5.744970 -3.148465 10.370767 -0.715829 -0.095139 0.000000 0.000000 0.000000 0.000000 0.000000 0.000000 -7.818354 2.172931 7.160956 1.718911 0.471265 0.968753 0.000000 0.000000 0.000000 -10.974396 0.303837 -0.550927 -5.713470 1.958845 3.153064 0.000000 0.000000 0.000000
-7.132708 60.000000 -8.927111 -5.717868 0.717574 0.881226 -5.717868 0.717574 0.881226 0.000000 0.000000 0.000000 -1.825268 1.245076 1.035186 5.000000 0.000000 0.000000 -5.509200 -0.114598 16.069772 14.458912 -3.904265 9.050223 0.000000 0.000000 0.000000 0.000000 0.000000 0.000000 12.153124 -7.115215 -3.188574 10.937382 -0.877354 0.263568 0.000000 0.000000 0.000000 0.000000 0.000000 0.000000 -8.701969 2.425430 7.515019 0.515037 0.332173 0.826273 0.000000 0.000000 0.000000 -11.131790 0.315557 -0.437450 -5.879504 2.037337 3.306640 0.000000 0.000000 0.000000
-9.223938 60.000000 -9.803641 -6.433929 0.515354 0.281114 -6.433929 0.515354 0.281114 0.000000 0.000000 0.000000 -2.173460 1.958638 1.677318 5.000000 0.000000 0.000000 -1.492384 2.081820 31.560754 17.673927 -5.216361 11.384807 0.000000 0.000000 0.000000 0.000000 0.000000 0.000000 11.078493 -6.628597 -3.631539 8.274462 -0.787329 0.603369 0.000000 0.000000 0.000000 0.000000 0.000000 0.000000 -8.446500 2.398158 7.784652 0.540596 0.331079 0.817701 0.000000 0.000000 0.000000 -11.365202 0.343519 -0.132297 -6.153565 2.117875 3.365399 0.000000 0.000000 0.000000
-10.495690 60.000000 -10.236750 -7.058883 0.328262 -0.260032 -7.058883 0.328262 -0.260032 0.000000 0.000000 0.000000 -2.745660 2.519544 2.142146 5.000000 0.000000 0.000000 1.680935 3.504780 46.879697 16.901554 -5.726555 12.393156 0.000000 0.000000 0.000000 0.000000 0.000000 0.000000 8.887490 -5.569139 -3.907657 6.766781 -0.718840 0.759375 0.000000 0.000000 0.000000 0.000000 0.000000 0.000000 -8.454383 2.380401 7.626539 0.618390 0.356380 0.884566 0.000000 0.000000 0.000000 -11.860858 0.392529 0.396327 -6.584128 2.205525 3.306310 0.000000 0.000000 0.000000
